<mxfile host="Electron" modified="2024-01-09T18:28:49.834Z" agent="Mozilla/5.0 (X11; Linux x86_64) AppleWebKit/537.36 (KHTML, like Gecko) draw.io/22.1.16 Chrome/120.0.6099.109 Electron/28.1.0 Safari/537.36" etag="87yNTeoyUGoR04zHjxqc" version="22.1.16" type="device">
  <diagram name="Page-1" id="QCoa-lMiZy6haQCxAigq">
    <mxGraphModel dx="1247" dy="728" grid="1" gridSize="10" guides="1" tooltips="1" connect="1" arrows="1" fold="1" page="1" pageScale="1" pageWidth="850" pageHeight="1100" math="0" shadow="0">
      <root>
        <mxCell id="0" />
        <mxCell id="1" parent="0" />
        <mxCell id="-3ElCd8Z8MywudBfbo3r-109" value="" style="rounded=0;whiteSpace=wrap;html=1;fillColor=#6d8764;fontColor=#ffffff;strokeColor=#3A5431;strokeWidth=3;" parent="1" vertex="1">
          <mxGeometry x="210" y="30" width="1810" height="1090" as="geometry" />
        </mxCell>
        <mxCell id="-3ElCd8Z8MywudBfbo3r-34" value="clinic" style="shape=table;startSize=30;container=1;collapsible=1;childLayout=tableLayout;fixedRows=1;rowLines=0;fontStyle=1;align=center;resizeLast=1;html=1;strokeColor=#080808;swimlaneFillColor=none;rounded=1;perimeterSpacing=0;" parent="1" vertex="1">
          <mxGeometry x="330" y="390" width="180" height="210" as="geometry" />
        </mxCell>
        <mxCell id="-3ElCd8Z8MywudBfbo3r-35" value="" style="shape=tableRow;horizontal=0;startSize=0;swimlaneHead=0;swimlaneBody=0;fillColor=none;collapsible=0;dropTarget=0;points=[[0,0.5],[1,0.5]];portConstraint=eastwest;top=0;left=0;right=0;bottom=1;" parent="-3ElCd8Z8MywudBfbo3r-34" vertex="1">
          <mxGeometry y="30" width="180" height="30" as="geometry" />
        </mxCell>
        <mxCell id="-3ElCd8Z8MywudBfbo3r-36" value="PK" style="shape=partialRectangle;connectable=0;fillColor=none;top=0;left=0;bottom=0;right=0;fontStyle=1;overflow=hidden;whiteSpace=wrap;html=1;" parent="-3ElCd8Z8MywudBfbo3r-35" vertex="1">
          <mxGeometry width="30" height="30" as="geometry">
            <mxRectangle width="30" height="30" as="alternateBounds" />
          </mxGeometry>
        </mxCell>
        <mxCell id="-3ElCd8Z8MywudBfbo3r-37" value="ClinicID" style="shape=partialRectangle;connectable=0;fillColor=none;top=0;left=0;bottom=0;right=0;align=left;spacingLeft=6;fontStyle=5;overflow=hidden;whiteSpace=wrap;html=1;" parent="-3ElCd8Z8MywudBfbo3r-35" vertex="1">
          <mxGeometry x="30" width="150" height="30" as="geometry">
            <mxRectangle width="150" height="30" as="alternateBounds" />
          </mxGeometry>
        </mxCell>
        <mxCell id="-3ElCd8Z8MywudBfbo3r-47" value="" style="shape=tableRow;horizontal=0;startSize=0;swimlaneHead=0;swimlaneBody=0;fillColor=none;collapsible=0;dropTarget=0;points=[[0,0.5],[1,0.5]];portConstraint=eastwest;top=0;left=0;right=0;bottom=1;" parent="-3ElCd8Z8MywudBfbo3r-34" vertex="1">
          <mxGeometry y="60" width="180" height="30" as="geometry" />
        </mxCell>
        <mxCell id="-3ElCd8Z8MywudBfbo3r-48" value="" style="shape=partialRectangle;connectable=0;fillColor=none;top=0;left=0;bottom=0;right=0;fontStyle=1;overflow=hidden;whiteSpace=wrap;html=1;" parent="-3ElCd8Z8MywudBfbo3r-47" vertex="1">
          <mxGeometry width="30" height="30" as="geometry">
            <mxRectangle width="30" height="30" as="alternateBounds" />
          </mxGeometry>
        </mxCell>
        <mxCell id="-3ElCd8Z8MywudBfbo3r-49" value="ClinicName" style="shape=partialRectangle;connectable=0;fillColor=none;top=0;left=0;bottom=0;right=0;align=left;spacingLeft=6;fontStyle=5;overflow=hidden;whiteSpace=wrap;html=1;" parent="-3ElCd8Z8MywudBfbo3r-47" vertex="1">
          <mxGeometry x="30" width="150" height="30" as="geometry">
            <mxRectangle width="150" height="30" as="alternateBounds" />
          </mxGeometry>
        </mxCell>
        <mxCell id="-3ElCd8Z8MywudBfbo3r-50" value="" style="shape=tableRow;horizontal=0;startSize=0;swimlaneHead=0;swimlaneBody=0;fillColor=none;collapsible=0;dropTarget=0;points=[[0,0.5],[1,0.5]];portConstraint=eastwest;top=0;left=0;right=0;bottom=1;" parent="-3ElCd8Z8MywudBfbo3r-34" vertex="1">
          <mxGeometry y="90" width="180" height="30" as="geometry" />
        </mxCell>
        <mxCell id="-3ElCd8Z8MywudBfbo3r-51" value="" style="shape=partialRectangle;connectable=0;fillColor=none;top=0;left=0;bottom=0;right=0;fontStyle=1;overflow=hidden;whiteSpace=wrap;html=1;" parent="-3ElCd8Z8MywudBfbo3r-50" vertex="1">
          <mxGeometry width="30" height="30" as="geometry">
            <mxRectangle width="30" height="30" as="alternateBounds" />
          </mxGeometry>
        </mxCell>
        <mxCell id="-3ElCd8Z8MywudBfbo3r-52" value="ClinicStreetAddress" style="shape=partialRectangle;connectable=0;fillColor=none;top=0;left=0;bottom=0;right=0;align=left;spacingLeft=6;fontStyle=5;overflow=hidden;whiteSpace=wrap;html=1;" parent="-3ElCd8Z8MywudBfbo3r-50" vertex="1">
          <mxGeometry x="30" width="150" height="30" as="geometry">
            <mxRectangle width="150" height="30" as="alternateBounds" />
          </mxGeometry>
        </mxCell>
        <mxCell id="-3ElCd8Z8MywudBfbo3r-56" value="" style="shape=tableRow;horizontal=0;startSize=0;swimlaneHead=0;swimlaneBody=0;fillColor=none;collapsible=0;dropTarget=0;points=[[0,0.5],[1,0.5]];portConstraint=eastwest;top=0;left=0;right=0;bottom=1;" parent="-3ElCd8Z8MywudBfbo3r-34" vertex="1">
          <mxGeometry y="120" width="180" height="30" as="geometry" />
        </mxCell>
        <mxCell id="-3ElCd8Z8MywudBfbo3r-57" value="" style="shape=partialRectangle;connectable=0;fillColor=none;top=0;left=0;bottom=0;right=0;fontStyle=1;overflow=hidden;whiteSpace=wrap;html=1;" parent="-3ElCd8Z8MywudBfbo3r-56" vertex="1">
          <mxGeometry width="30" height="30" as="geometry">
            <mxRectangle width="30" height="30" as="alternateBounds" />
          </mxGeometry>
        </mxCell>
        <mxCell id="-3ElCd8Z8MywudBfbo3r-58" value="ClinicCity" style="shape=partialRectangle;connectable=0;fillColor=none;top=0;left=0;bottom=0;right=0;align=left;spacingLeft=6;fontStyle=5;overflow=hidden;whiteSpace=wrap;html=1;" parent="-3ElCd8Z8MywudBfbo3r-56" vertex="1">
          <mxGeometry x="30" width="150" height="30" as="geometry">
            <mxRectangle width="150" height="30" as="alternateBounds" />
          </mxGeometry>
        </mxCell>
        <mxCell id="-3ElCd8Z8MywudBfbo3r-59" value="" style="shape=tableRow;horizontal=0;startSize=0;swimlaneHead=0;swimlaneBody=0;fillColor=none;collapsible=0;dropTarget=0;points=[[0,0.5],[1,0.5]];portConstraint=eastwest;top=0;left=0;right=0;bottom=1;" parent="-3ElCd8Z8MywudBfbo3r-34" vertex="1">
          <mxGeometry y="150" width="180" height="30" as="geometry" />
        </mxCell>
        <mxCell id="-3ElCd8Z8MywudBfbo3r-60" value="" style="shape=partialRectangle;connectable=0;fillColor=none;top=0;left=0;bottom=0;right=0;fontStyle=1;overflow=hidden;whiteSpace=wrap;html=1;" parent="-3ElCd8Z8MywudBfbo3r-59" vertex="1">
          <mxGeometry width="30" height="30" as="geometry">
            <mxRectangle width="30" height="30" as="alternateBounds" />
          </mxGeometry>
        </mxCell>
        <mxCell id="-3ElCd8Z8MywudBfbo3r-61" value="ClinicState" style="shape=partialRectangle;connectable=0;fillColor=none;top=0;left=0;bottom=0;right=0;align=left;spacingLeft=6;fontStyle=5;overflow=hidden;whiteSpace=wrap;html=1;" parent="-3ElCd8Z8MywudBfbo3r-59" vertex="1">
          <mxGeometry x="30" width="150" height="30" as="geometry">
            <mxRectangle width="150" height="30" as="alternateBounds" />
          </mxGeometry>
        </mxCell>
        <mxCell id="-3ElCd8Z8MywudBfbo3r-62" value="" style="shape=tableRow;horizontal=0;startSize=0;swimlaneHead=0;swimlaneBody=0;fillColor=none;collapsible=0;dropTarget=0;points=[[0,0.5],[1,0.5]];portConstraint=eastwest;top=0;left=0;right=0;bottom=1;" parent="-3ElCd8Z8MywudBfbo3r-34" vertex="1">
          <mxGeometry y="180" width="180" height="30" as="geometry" />
        </mxCell>
        <mxCell id="-3ElCd8Z8MywudBfbo3r-63" value="" style="shape=partialRectangle;connectable=0;fillColor=none;top=0;left=0;bottom=0;right=0;fontStyle=1;overflow=hidden;whiteSpace=wrap;html=1;" parent="-3ElCd8Z8MywudBfbo3r-62" vertex="1">
          <mxGeometry width="30" height="30" as="geometry">
            <mxRectangle width="30" height="30" as="alternateBounds" />
          </mxGeometry>
        </mxCell>
        <mxCell id="-3ElCd8Z8MywudBfbo3r-64" value="ClinicZip" style="shape=partialRectangle;connectable=0;fillColor=none;top=0;left=0;bottom=0;right=0;align=left;spacingLeft=6;fontStyle=5;overflow=hidden;whiteSpace=wrap;html=1;" parent="-3ElCd8Z8MywudBfbo3r-62" vertex="1">
          <mxGeometry x="30" width="150" height="30" as="geometry">
            <mxRectangle width="150" height="30" as="alternateBounds" />
          </mxGeometry>
        </mxCell>
        <mxCell id="-3ElCd8Z8MywudBfbo3r-65" value="Doctor" style="shape=table;startSize=30;container=1;collapsible=1;childLayout=tableLayout;fixedRows=1;rowLines=0;fontStyle=1;align=center;resizeLast=1;html=1;strokeColor=#080808;rounded=1;swimlaneLine=1;" parent="1" vertex="1">
          <mxGeometry x="910" y="460" width="180" height="210" as="geometry" />
        </mxCell>
        <mxCell id="-3ElCd8Z8MywudBfbo3r-66" value="" style="shape=tableRow;horizontal=0;startSize=0;swimlaneHead=0;swimlaneBody=0;fillColor=none;collapsible=0;dropTarget=0;points=[[0,0.5],[1,0.5]];portConstraint=eastwest;top=0;left=0;right=0;bottom=1;" parent="-3ElCd8Z8MywudBfbo3r-65" vertex="1">
          <mxGeometry y="30" width="180" height="30" as="geometry" />
        </mxCell>
        <mxCell id="-3ElCd8Z8MywudBfbo3r-67" value="PK" style="shape=partialRectangle;connectable=0;fillColor=none;top=0;left=0;bottom=0;right=0;fontStyle=1;overflow=hidden;whiteSpace=wrap;html=1;" parent="-3ElCd8Z8MywudBfbo3r-66" vertex="1">
          <mxGeometry width="30" height="30" as="geometry">
            <mxRectangle width="30" height="30" as="alternateBounds" />
          </mxGeometry>
        </mxCell>
        <mxCell id="-3ElCd8Z8MywudBfbo3r-68" value="DoctorId" style="shape=partialRectangle;connectable=0;fillColor=none;top=0;left=0;bottom=0;right=0;align=left;spacingLeft=6;fontStyle=5;overflow=hidden;whiteSpace=wrap;html=1;" parent="-3ElCd8Z8MywudBfbo3r-66" vertex="1">
          <mxGeometry x="30" width="150" height="30" as="geometry">
            <mxRectangle width="150" height="30" as="alternateBounds" />
          </mxGeometry>
        </mxCell>
        <mxCell id="-3ElCd8Z8MywudBfbo3r-69" value="" style="shape=tableRow;horizontal=0;startSize=0;swimlaneHead=0;swimlaneBody=0;fillColor=none;collapsible=0;dropTarget=0;points=[[0,0.5],[1,0.5]];portConstraint=eastwest;top=0;left=0;right=0;bottom=1;" parent="-3ElCd8Z8MywudBfbo3r-65" vertex="1">
          <mxGeometry y="60" width="180" height="30" as="geometry" />
        </mxCell>
        <mxCell id="-3ElCd8Z8MywudBfbo3r-70" value="" style="shape=partialRectangle;connectable=0;fillColor=none;top=0;left=0;bottom=0;right=0;fontStyle=1;overflow=hidden;whiteSpace=wrap;html=1;" parent="-3ElCd8Z8MywudBfbo3r-69" vertex="1">
          <mxGeometry width="30" height="30" as="geometry">
            <mxRectangle width="30" height="30" as="alternateBounds" />
          </mxGeometry>
        </mxCell>
        <mxCell id="-3ElCd8Z8MywudBfbo3r-71" value="LeadId" style="shape=partialRectangle;connectable=0;fillColor=none;top=0;left=0;bottom=0;right=0;align=left;spacingLeft=6;fontStyle=5;overflow=hidden;whiteSpace=wrap;html=1;" parent="-3ElCd8Z8MywudBfbo3r-69" vertex="1">
          <mxGeometry x="30" width="150" height="30" as="geometry">
            <mxRectangle width="150" height="30" as="alternateBounds" />
          </mxGeometry>
        </mxCell>
        <mxCell id="-3ElCd8Z8MywudBfbo3r-72" value="" style="shape=tableRow;horizontal=0;startSize=0;swimlaneHead=0;swimlaneBody=0;fillColor=none;collapsible=0;dropTarget=0;points=[[0,0.5],[1,0.5]];portConstraint=eastwest;top=0;left=0;right=0;bottom=1;" parent="-3ElCd8Z8MywudBfbo3r-65" vertex="1">
          <mxGeometry y="90" width="180" height="30" as="geometry" />
        </mxCell>
        <mxCell id="-3ElCd8Z8MywudBfbo3r-73" value="" style="shape=partialRectangle;connectable=0;fillColor=none;top=0;left=0;bottom=0;right=0;fontStyle=1;overflow=hidden;whiteSpace=wrap;html=1;" parent="-3ElCd8Z8MywudBfbo3r-72" vertex="1">
          <mxGeometry width="30" height="30" as="geometry">
            <mxRectangle width="30" height="30" as="alternateBounds" />
          </mxGeometry>
        </mxCell>
        <mxCell id="-3ElCd8Z8MywudBfbo3r-74" value="DoctorFirstName" style="shape=partialRectangle;connectable=0;fillColor=none;top=0;left=0;bottom=0;right=0;align=left;spacingLeft=6;fontStyle=5;overflow=hidden;whiteSpace=wrap;html=1;" parent="-3ElCd8Z8MywudBfbo3r-72" vertex="1">
          <mxGeometry x="30" width="150" height="30" as="geometry">
            <mxRectangle width="150" height="30" as="alternateBounds" />
          </mxGeometry>
        </mxCell>
        <mxCell id="-3ElCd8Z8MywudBfbo3r-158" style="shape=tableRow;horizontal=0;startSize=0;swimlaneHead=0;swimlaneBody=0;fillColor=none;collapsible=0;dropTarget=0;points=[[0,0.5],[1,0.5]];portConstraint=eastwest;top=0;left=0;right=0;bottom=1;" parent="-3ElCd8Z8MywudBfbo3r-65" vertex="1">
          <mxGeometry y="120" width="180" height="30" as="geometry" />
        </mxCell>
        <mxCell id="-3ElCd8Z8MywudBfbo3r-159" style="shape=partialRectangle;connectable=0;fillColor=none;top=0;left=0;bottom=0;right=0;fontStyle=1;overflow=hidden;whiteSpace=wrap;html=1;" parent="-3ElCd8Z8MywudBfbo3r-158" vertex="1">
          <mxGeometry width="30" height="30" as="geometry">
            <mxRectangle width="30" height="30" as="alternateBounds" />
          </mxGeometry>
        </mxCell>
        <mxCell id="-3ElCd8Z8MywudBfbo3r-160" value="DoctorLastName" style="shape=partialRectangle;connectable=0;fillColor=none;top=0;left=0;bottom=0;right=0;align=left;spacingLeft=6;fontStyle=5;overflow=hidden;whiteSpace=wrap;html=1;" parent="-3ElCd8Z8MywudBfbo3r-158" vertex="1">
          <mxGeometry x="30" width="150" height="30" as="geometry">
            <mxRectangle width="150" height="30" as="alternateBounds" />
          </mxGeometry>
        </mxCell>
        <mxCell id="-3ElCd8Z8MywudBfbo3r-84" value="" style="shape=tableRow;horizontal=0;startSize=0;swimlaneHead=0;swimlaneBody=0;fillColor=none;collapsible=0;dropTarget=0;points=[[0,0.5],[1,0.5]];portConstraint=eastwest;top=0;left=0;right=0;bottom=1;" parent="-3ElCd8Z8MywudBfbo3r-65" vertex="1">
          <mxGeometry y="150" width="180" height="30" as="geometry" />
        </mxCell>
        <mxCell id="-3ElCd8Z8MywudBfbo3r-85" value="FK" style="shape=partialRectangle;connectable=0;fillColor=none;top=0;left=0;bottom=0;right=0;fontStyle=1;overflow=hidden;whiteSpace=wrap;html=1;" parent="-3ElCd8Z8MywudBfbo3r-84" vertex="1">
          <mxGeometry width="30" height="30" as="geometry">
            <mxRectangle width="30" height="30" as="alternateBounds" />
          </mxGeometry>
        </mxCell>
        <mxCell id="-3ElCd8Z8MywudBfbo3r-86" value="ClinicID" style="shape=partialRectangle;connectable=0;fillColor=none;top=0;left=0;bottom=0;right=0;align=left;spacingLeft=6;fontStyle=5;overflow=hidden;whiteSpace=wrap;html=1;" parent="-3ElCd8Z8MywudBfbo3r-84" vertex="1">
          <mxGeometry x="30" width="150" height="30" as="geometry">
            <mxRectangle width="150" height="30" as="alternateBounds" />
          </mxGeometry>
        </mxCell>
        <mxCell id="-3ElCd8Z8MywudBfbo3r-177" style="shape=tableRow;horizontal=0;startSize=0;swimlaneHead=0;swimlaneBody=0;fillColor=none;collapsible=0;dropTarget=0;points=[[0,0.5],[1,0.5]];portConstraint=eastwest;top=0;left=0;right=0;bottom=1;" parent="-3ElCd8Z8MywudBfbo3r-65" vertex="1">
          <mxGeometry y="180" width="180" height="30" as="geometry" />
        </mxCell>
        <mxCell id="-3ElCd8Z8MywudBfbo3r-178" value="FK" style="shape=partialRectangle;connectable=0;fillColor=none;top=0;left=0;bottom=0;right=0;fontStyle=1;overflow=hidden;whiteSpace=wrap;html=1;" parent="-3ElCd8Z8MywudBfbo3r-177" vertex="1">
          <mxGeometry width="30" height="30" as="geometry">
            <mxRectangle width="30" height="30" as="alternateBounds" />
          </mxGeometry>
        </mxCell>
        <mxCell id="-3ElCd8Z8MywudBfbo3r-179" value="Overseeing" style="shape=partialRectangle;connectable=0;fillColor=none;top=0;left=0;bottom=0;right=0;align=left;spacingLeft=6;fontStyle=5;overflow=hidden;whiteSpace=wrap;html=1;" parent="-3ElCd8Z8MywudBfbo3r-177" vertex="1">
          <mxGeometry x="30" width="150" height="30" as="geometry">
            <mxRectangle width="150" height="30" as="alternateBounds" />
          </mxGeometry>
        </mxCell>
        <mxCell id="-3ElCd8Z8MywudBfbo3r-87" value="nurses" style="shape=table;startSize=30;container=1;collapsible=1;childLayout=tableLayout;fixedRows=1;rowLines=0;fontStyle=1;align=center;resizeLast=1;html=1;rounded=1;strokeColor=#080808;" parent="1" vertex="1">
          <mxGeometry x="1600" y="380" width="180" height="210" as="geometry" />
        </mxCell>
        <mxCell id="-3ElCd8Z8MywudBfbo3r-88" value="" style="shape=tableRow;horizontal=0;startSize=0;swimlaneHead=0;swimlaneBody=0;fillColor=none;collapsible=0;dropTarget=0;points=[[0,0.5],[1,0.5]];portConstraint=eastwest;top=0;left=0;right=0;bottom=1;" parent="-3ElCd8Z8MywudBfbo3r-87" vertex="1">
          <mxGeometry y="30" width="180" height="30" as="geometry" />
        </mxCell>
        <mxCell id="-3ElCd8Z8MywudBfbo3r-89" value="PK" style="shape=partialRectangle;connectable=0;fillColor=none;top=0;left=0;bottom=0;right=0;fontStyle=1;overflow=hidden;whiteSpace=wrap;html=1;" parent="-3ElCd8Z8MywudBfbo3r-88" vertex="1">
          <mxGeometry width="30" height="30" as="geometry">
            <mxRectangle width="30" height="30" as="alternateBounds" />
          </mxGeometry>
        </mxCell>
        <mxCell id="-3ElCd8Z8MywudBfbo3r-90" value="NurseId" style="shape=partialRectangle;connectable=0;fillColor=none;top=0;left=0;bottom=0;right=0;align=left;spacingLeft=6;fontStyle=5;overflow=hidden;whiteSpace=wrap;html=1;" parent="-3ElCd8Z8MywudBfbo3r-88" vertex="1">
          <mxGeometry x="30" width="150" height="30" as="geometry">
            <mxRectangle width="150" height="30" as="alternateBounds" />
          </mxGeometry>
        </mxCell>
        <mxCell id="-3ElCd8Z8MywudBfbo3r-91" value="" style="shape=tableRow;horizontal=0;startSize=0;swimlaneHead=0;swimlaneBody=0;fillColor=none;collapsible=0;dropTarget=0;points=[[0,0.5],[1,0.5]];portConstraint=eastwest;top=0;left=0;right=0;bottom=1;" parent="-3ElCd8Z8MywudBfbo3r-87" vertex="1">
          <mxGeometry y="60" width="180" height="30" as="geometry" />
        </mxCell>
        <mxCell id="-3ElCd8Z8MywudBfbo3r-92" value="" style="shape=partialRectangle;connectable=0;fillColor=none;top=0;left=0;bottom=0;right=0;fontStyle=1;overflow=hidden;whiteSpace=wrap;html=1;" parent="-3ElCd8Z8MywudBfbo3r-91" vertex="1">
          <mxGeometry width="30" height="30" as="geometry">
            <mxRectangle width="30" height="30" as="alternateBounds" />
          </mxGeometry>
        </mxCell>
        <mxCell id="-3ElCd8Z8MywudBfbo3r-93" value="NurseEmpNum" style="shape=partialRectangle;connectable=0;fillColor=none;top=0;left=0;bottom=0;right=0;align=left;spacingLeft=6;fontStyle=5;overflow=hidden;whiteSpace=wrap;html=1;" parent="-3ElCd8Z8MywudBfbo3r-91" vertex="1">
          <mxGeometry x="30" width="150" height="30" as="geometry">
            <mxRectangle width="150" height="30" as="alternateBounds" />
          </mxGeometry>
        </mxCell>
        <mxCell id="-3ElCd8Z8MywudBfbo3r-94" value="" style="shape=tableRow;horizontal=0;startSize=0;swimlaneHead=0;swimlaneBody=0;fillColor=none;collapsible=0;dropTarget=0;points=[[0,0.5],[1,0.5]];portConstraint=eastwest;top=0;left=0;right=0;bottom=1;" parent="-3ElCd8Z8MywudBfbo3r-87" vertex="1">
          <mxGeometry y="90" width="180" height="30" as="geometry" />
        </mxCell>
        <mxCell id="-3ElCd8Z8MywudBfbo3r-95" value="" style="shape=partialRectangle;connectable=0;fillColor=none;top=0;left=0;bottom=0;right=0;fontStyle=1;overflow=hidden;whiteSpace=wrap;html=1;" parent="-3ElCd8Z8MywudBfbo3r-94" vertex="1">
          <mxGeometry width="30" height="30" as="geometry">
            <mxRectangle width="30" height="30" as="alternateBounds" />
          </mxGeometry>
        </mxCell>
        <mxCell id="-3ElCd8Z8MywudBfbo3r-96" value="NurseFirstName" style="shape=partialRectangle;connectable=0;fillColor=none;top=0;left=0;bottom=0;right=0;align=left;spacingLeft=6;fontStyle=5;overflow=hidden;whiteSpace=wrap;html=1;" parent="-3ElCd8Z8MywudBfbo3r-94" vertex="1">
          <mxGeometry x="30" width="150" height="30" as="geometry">
            <mxRectangle width="150" height="30" as="alternateBounds" />
          </mxGeometry>
        </mxCell>
        <mxCell id="-3ElCd8Z8MywudBfbo3r-97" value="" style="shape=tableRow;horizontal=0;startSize=0;swimlaneHead=0;swimlaneBody=0;fillColor=none;collapsible=0;dropTarget=0;points=[[0,0.5],[1,0.5]];portConstraint=eastwest;top=0;left=0;right=0;bottom=1;" parent="-3ElCd8Z8MywudBfbo3r-87" vertex="1">
          <mxGeometry y="120" width="180" height="30" as="geometry" />
        </mxCell>
        <mxCell id="-3ElCd8Z8MywudBfbo3r-98" value="" style="shape=partialRectangle;connectable=0;fillColor=none;top=0;left=0;bottom=0;right=0;fontStyle=1;overflow=hidden;whiteSpace=wrap;html=1;" parent="-3ElCd8Z8MywudBfbo3r-97" vertex="1">
          <mxGeometry width="30" height="30" as="geometry">
            <mxRectangle width="30" height="30" as="alternateBounds" />
          </mxGeometry>
        </mxCell>
        <mxCell id="-3ElCd8Z8MywudBfbo3r-99" value="NurseLastName" style="shape=partialRectangle;connectable=0;fillColor=none;top=0;left=0;bottom=0;right=0;align=left;spacingLeft=6;fontStyle=5;overflow=hidden;whiteSpace=wrap;html=1;" parent="-3ElCd8Z8MywudBfbo3r-97" vertex="1">
          <mxGeometry x="30" width="150" height="30" as="geometry">
            <mxRectangle width="150" height="30" as="alternateBounds" />
          </mxGeometry>
        </mxCell>
        <mxCell id="-3ElCd8Z8MywudBfbo3r-103" value="" style="shape=tableRow;horizontal=0;startSize=0;swimlaneHead=0;swimlaneBody=0;fillColor=none;collapsible=0;dropTarget=0;points=[[0,0.5],[1,0.5]];portConstraint=eastwest;top=0;left=0;right=0;bottom=1;" parent="-3ElCd8Z8MywudBfbo3r-87" vertex="1">
          <mxGeometry y="150" width="180" height="30" as="geometry" />
        </mxCell>
        <mxCell id="-3ElCd8Z8MywudBfbo3r-104" value="FK" style="shape=partialRectangle;connectable=0;fillColor=none;top=0;left=0;bottom=0;right=0;fontStyle=1;overflow=hidden;whiteSpace=wrap;html=1;" parent="-3ElCd8Z8MywudBfbo3r-103" vertex="1">
          <mxGeometry width="30" height="30" as="geometry">
            <mxRectangle width="30" height="30" as="alternateBounds" />
          </mxGeometry>
        </mxCell>
        <mxCell id="-3ElCd8Z8MywudBfbo3r-105" value="ClinicId" style="shape=partialRectangle;connectable=0;fillColor=none;top=0;left=0;bottom=0;right=0;align=left;spacingLeft=6;fontStyle=5;overflow=hidden;whiteSpace=wrap;html=1;" parent="-3ElCd8Z8MywudBfbo3r-103" vertex="1">
          <mxGeometry x="30" width="150" height="30" as="geometry">
            <mxRectangle width="150" height="30" as="alternateBounds" />
          </mxGeometry>
        </mxCell>
        <mxCell id="-3ElCd8Z8MywudBfbo3r-106" value="" style="shape=tableRow;horizontal=0;startSize=0;swimlaneHead=0;swimlaneBody=0;fillColor=none;collapsible=0;dropTarget=0;points=[[0,0.5],[1,0.5]];portConstraint=eastwest;top=0;left=0;right=0;bottom=1;" parent="-3ElCd8Z8MywudBfbo3r-87" vertex="1">
          <mxGeometry y="180" width="180" height="30" as="geometry" />
        </mxCell>
        <mxCell id="-3ElCd8Z8MywudBfbo3r-107" value="FK" style="shape=partialRectangle;connectable=0;fillColor=none;top=0;left=0;bottom=0;right=0;fontStyle=1;overflow=hidden;whiteSpace=wrap;html=1;" parent="-3ElCd8Z8MywudBfbo3r-106" vertex="1">
          <mxGeometry width="30" height="30" as="geometry">
            <mxRectangle width="30" height="30" as="alternateBounds" />
          </mxGeometry>
        </mxCell>
        <mxCell id="-3ElCd8Z8MywudBfbo3r-108" value="Overseeing" style="shape=partialRectangle;connectable=0;fillColor=none;top=0;left=0;bottom=0;right=0;align=left;spacingLeft=6;fontStyle=5;overflow=hidden;whiteSpace=wrap;html=1;" parent="-3ElCd8Z8MywudBfbo3r-106" vertex="1">
          <mxGeometry x="30" width="150" height="30" as="geometry">
            <mxRectangle width="150" height="30" as="alternateBounds" />
          </mxGeometry>
        </mxCell>
        <mxCell id="-3ElCd8Z8MywudBfbo3r-110" value="administration_staff" style="shape=table;startSize=30;container=1;collapsible=1;childLayout=tableLayout;fixedRows=1;rowLines=0;fontStyle=1;align=center;resizeLast=1;html=1;strokeColor=#080808;rounded=1;" parent="1" vertex="1">
          <mxGeometry x="350" y="170" width="180" height="180" as="geometry" />
        </mxCell>
        <mxCell id="-3ElCd8Z8MywudBfbo3r-111" value="" style="shape=tableRow;horizontal=0;startSize=0;swimlaneHead=0;swimlaneBody=0;fillColor=none;collapsible=0;dropTarget=0;points=[[0,0.5],[1,0.5]];portConstraint=eastwest;top=0;left=0;right=0;bottom=1;" parent="-3ElCd8Z8MywudBfbo3r-110" vertex="1">
          <mxGeometry y="30" width="180" height="30" as="geometry" />
        </mxCell>
        <mxCell id="-3ElCd8Z8MywudBfbo3r-112" value="PK" style="shape=partialRectangle;connectable=0;fillColor=none;top=0;left=0;bottom=0;right=0;fontStyle=1;overflow=hidden;whiteSpace=wrap;html=1;" parent="-3ElCd8Z8MywudBfbo3r-111" vertex="1">
          <mxGeometry width="30" height="30" as="geometry">
            <mxRectangle width="30" height="30" as="alternateBounds" />
          </mxGeometry>
        </mxCell>
        <mxCell id="-3ElCd8Z8MywudBfbo3r-113" value="AdminId" style="shape=partialRectangle;connectable=0;fillColor=none;top=0;left=0;bottom=0;right=0;align=left;spacingLeft=6;fontStyle=5;overflow=hidden;whiteSpace=wrap;html=1;" parent="-3ElCd8Z8MywudBfbo3r-111" vertex="1">
          <mxGeometry x="30" width="150" height="30" as="geometry">
            <mxRectangle width="150" height="30" as="alternateBounds" />
          </mxGeometry>
        </mxCell>
        <mxCell id="-3ElCd8Z8MywudBfbo3r-114" value="" style="shape=tableRow;horizontal=0;startSize=0;swimlaneHead=0;swimlaneBody=0;fillColor=none;collapsible=0;dropTarget=0;points=[[0,0.5],[1,0.5]];portConstraint=eastwest;top=0;left=0;right=0;bottom=1;" parent="-3ElCd8Z8MywudBfbo3r-110" vertex="1">
          <mxGeometry y="60" width="180" height="30" as="geometry" />
        </mxCell>
        <mxCell id="-3ElCd8Z8MywudBfbo3r-115" value="" style="shape=partialRectangle;connectable=0;fillColor=none;top=0;left=0;bottom=0;right=0;fontStyle=1;overflow=hidden;whiteSpace=wrap;html=1;" parent="-3ElCd8Z8MywudBfbo3r-114" vertex="1">
          <mxGeometry width="30" height="30" as="geometry">
            <mxRectangle width="30" height="30" as="alternateBounds" />
          </mxGeometry>
        </mxCell>
        <mxCell id="-3ElCd8Z8MywudBfbo3r-116" value="AdminFirstName" style="shape=partialRectangle;connectable=0;fillColor=none;top=0;left=0;bottom=0;right=0;align=left;spacingLeft=6;fontStyle=5;overflow=hidden;whiteSpace=wrap;html=1;" parent="-3ElCd8Z8MywudBfbo3r-114" vertex="1">
          <mxGeometry x="30" width="150" height="30" as="geometry">
            <mxRectangle width="150" height="30" as="alternateBounds" />
          </mxGeometry>
        </mxCell>
        <mxCell id="-3ElCd8Z8MywudBfbo3r-117" value="" style="shape=tableRow;horizontal=0;startSize=0;swimlaneHead=0;swimlaneBody=0;fillColor=none;collapsible=0;dropTarget=0;points=[[0,0.5],[1,0.5]];portConstraint=eastwest;top=0;left=0;right=0;bottom=1;" parent="-3ElCd8Z8MywudBfbo3r-110" vertex="1">
          <mxGeometry y="90" width="180" height="30" as="geometry" />
        </mxCell>
        <mxCell id="-3ElCd8Z8MywudBfbo3r-118" value="" style="shape=partialRectangle;connectable=0;fillColor=none;top=0;left=0;bottom=0;right=0;fontStyle=1;overflow=hidden;whiteSpace=wrap;html=1;" parent="-3ElCd8Z8MywudBfbo3r-117" vertex="1">
          <mxGeometry width="30" height="30" as="geometry">
            <mxRectangle width="30" height="30" as="alternateBounds" />
          </mxGeometry>
        </mxCell>
        <mxCell id="-3ElCd8Z8MywudBfbo3r-119" value="AdminLastName" style="shape=partialRectangle;connectable=0;fillColor=none;top=0;left=0;bottom=0;right=0;align=left;spacingLeft=6;fontStyle=5;overflow=hidden;whiteSpace=wrap;html=1;" parent="-3ElCd8Z8MywudBfbo3r-117" vertex="1">
          <mxGeometry x="30" width="150" height="30" as="geometry">
            <mxRectangle width="150" height="30" as="alternateBounds" />
          </mxGeometry>
        </mxCell>
        <mxCell id="-3ElCd8Z8MywudBfbo3r-129" value="" style="shape=tableRow;horizontal=0;startSize=0;swimlaneHead=0;swimlaneBody=0;fillColor=none;collapsible=0;dropTarget=0;points=[[0,0.5],[1,0.5]];portConstraint=eastwest;top=0;left=0;right=0;bottom=1;" parent="-3ElCd8Z8MywudBfbo3r-110" vertex="1">
          <mxGeometry y="120" width="180" height="30" as="geometry" />
        </mxCell>
        <mxCell id="-3ElCd8Z8MywudBfbo3r-130" value="FK" style="shape=partialRectangle;connectable=0;fillColor=none;top=0;left=0;bottom=0;right=0;fontStyle=1;overflow=hidden;whiteSpace=wrap;html=1;" parent="-3ElCd8Z8MywudBfbo3r-129" vertex="1">
          <mxGeometry width="30" height="30" as="geometry">
            <mxRectangle width="30" height="30" as="alternateBounds" />
          </mxGeometry>
        </mxCell>
        <mxCell id="-3ElCd8Z8MywudBfbo3r-131" value="ClinicID" style="shape=partialRectangle;connectable=0;fillColor=none;top=0;left=0;bottom=0;right=0;align=left;spacingLeft=6;fontStyle=5;overflow=hidden;whiteSpace=wrap;html=1;" parent="-3ElCd8Z8MywudBfbo3r-129" vertex="1">
          <mxGeometry x="30" width="150" height="30" as="geometry">
            <mxRectangle width="150" height="30" as="alternateBounds" />
          </mxGeometry>
        </mxCell>
        <mxCell id="-3ElCd8Z8MywudBfbo3r-173" style="shape=tableRow;horizontal=0;startSize=0;swimlaneHead=0;swimlaneBody=0;fillColor=none;collapsible=0;dropTarget=0;points=[[0,0.5],[1,0.5]];portConstraint=eastwest;top=0;left=0;right=0;bottom=1;" parent="-3ElCd8Z8MywudBfbo3r-110" vertex="1">
          <mxGeometry y="150" width="180" height="30" as="geometry" />
        </mxCell>
        <mxCell id="-3ElCd8Z8MywudBfbo3r-174" style="shape=partialRectangle;connectable=0;fillColor=none;top=0;left=0;bottom=0;right=0;fontStyle=1;overflow=hidden;whiteSpace=wrap;html=1;" parent="-3ElCd8Z8MywudBfbo3r-173" vertex="1">
          <mxGeometry width="30" height="30" as="geometry">
            <mxRectangle width="30" height="30" as="alternateBounds" />
          </mxGeometry>
        </mxCell>
        <mxCell id="-3ElCd8Z8MywudBfbo3r-175" value="EmpStatus" style="shape=partialRectangle;connectable=0;fillColor=none;top=0;left=0;bottom=0;right=0;align=left;spacingLeft=6;fontStyle=5;overflow=hidden;whiteSpace=wrap;html=1;" parent="-3ElCd8Z8MywudBfbo3r-173" vertex="1">
          <mxGeometry x="30" width="150" height="30" as="geometry">
            <mxRectangle width="150" height="30" as="alternateBounds" />
          </mxGeometry>
        </mxCell>
        <mxCell id="-3ElCd8Z8MywudBfbo3r-170" style="edgeStyle=orthogonalEdgeStyle;orthogonalLoop=1;jettySize=auto;html=1;exitX=1;exitY=0.5;exitDx=0;exitDy=0;entryX=0;entryY=0.5;entryDx=0;entryDy=0;endArrow=ERoneToMany;endFill=0;startArrow=ERzeroToMany;startFill=0;fillColor=#e51400;strokeColor=#B20000;strokeWidth=3;curved=1;" parent="1" source="-3ElCd8Z8MywudBfbo3r-35" target="xt3l5cFGsbigXVoNxXbE-6" edge="1">
          <mxGeometry relative="1" as="geometry" />
        </mxCell>
        <mxCell id="-3ElCd8Z8MywudBfbo3r-171" style="edgeStyle=orthogonalEdgeStyle;orthogonalLoop=1;jettySize=auto;html=1;exitX=1;exitY=0.5;exitDx=0;exitDy=0;endArrow=ERoneToMany;endFill=0;startArrow=ERzeroToMany;startFill=0;strokeWidth=3;fillColor=#f8cecc;strokeColor=#b85450;curved=1;gradientColor=#ea6b66;entryX=0;entryY=0.5;entryDx=0;entryDy=0;" parent="1" source="-3ElCd8Z8MywudBfbo3r-66" target="xt3l5cFGsbigXVoNxXbE-34" edge="1">
          <mxGeometry relative="1" as="geometry">
            <mxPoint x="1100.0000000000002" y="490.0000000000001" as="sourcePoint" />
            <Array as="points">
              <mxPoint x="1210" y="505" />
              <mxPoint x="1210" y="530" />
            </Array>
          </mxGeometry>
        </mxCell>
        <mxCell id="-3ElCd8Z8MywudBfbo3r-176" style="edgeStyle=orthogonalEdgeStyle;orthogonalLoop=1;jettySize=auto;html=1;exitX=0;exitY=0.5;exitDx=0;exitDy=0;entryX=0;entryY=0.5;entryDx=0;entryDy=0;endArrow=ERoneToMany;endFill=0;startArrow=ERmandOne;startFill=0;strokeWidth=3;curved=1;fillColor=#e51400;strokeColor=#B20000;" parent="1" source="-3ElCd8Z8MywudBfbo3r-35" target="-3ElCd8Z8MywudBfbo3r-129" edge="1">
          <mxGeometry relative="1" as="geometry">
            <Array as="points">
              <mxPoint x="260" y="435" />
              <mxPoint x="260" y="305" />
            </Array>
          </mxGeometry>
        </mxCell>
        <mxCell id="_m1-MEPVuV4TrU3x_6vJ-1" value="Entity Ideas : Doctor, Nurse, AdminStaff, Clinic&lt;br&gt;Entity Ideas : Doctor, Nurse, AdminStaff, ClinicOperation (Endpoint) Ideas: When a user uses this REST API, they should be able to:&amp;nbsp;createDoctor() -- POST new Doctor, createNurse() -- POST new Nurse, createAdmin() POST new Admin, viewAllNursesByClinic() -- GET list of Nurse by clinic Id, viewNurseByNurseLicNum() -- GET a nurse based on NurseLicNum, viewListNursesByDocLicNum() -- GET list of nurse under specific doctor,&amp;nbsp;viewListofAdminByClinicId() -- GET list of Admin, viewAllClinics() -- GET list of Clinics, createClinic() -- POST new clinic,&lt;br&gt;viewClinicStaff() -- GET list of Doctor, Nurse, Admin" style="rounded=1;whiteSpace=wrap;html=1;align=left;" parent="1" vertex="1">
          <mxGeometry x="555" y="50" width="555" height="310" as="geometry" />
        </mxCell>
        <mxCell id="xt3l5cFGsbigXVoNxXbE-2" value="DoctorClinic" style="shape=table;startSize=30;container=1;collapsible=1;childLayout=tableLayout;fixedRows=1;rowLines=0;fontStyle=1;align=center;resizeLast=1;html=1;strokeColor=#080808;rounded=1;swimlaneLine=1;dashed=1;dashPattern=8 8;" vertex="1" parent="1">
          <mxGeometry x="630" y="480" width="180" height="95" as="geometry" />
        </mxCell>
        <mxCell id="xt3l5cFGsbigXVoNxXbE-3" value="" style="shape=tableRow;horizontal=0;startSize=0;swimlaneHead=0;swimlaneBody=0;fillColor=none;collapsible=0;dropTarget=0;points=[[0,0.5],[1,0.5]];portConstraint=eastwest;top=0;left=0;right=0;bottom=1;" vertex="1" parent="xt3l5cFGsbigXVoNxXbE-2">
          <mxGeometry y="30" width="180" height="30" as="geometry" />
        </mxCell>
        <mxCell id="xt3l5cFGsbigXVoNxXbE-4" value="PK,FK" style="shape=partialRectangle;connectable=0;fillColor=none;top=0;left=0;bottom=0;right=0;fontStyle=1;overflow=hidden;whiteSpace=wrap;html=1;" vertex="1" parent="xt3l5cFGsbigXVoNxXbE-3">
          <mxGeometry width="40" height="30" as="geometry">
            <mxRectangle width="40" height="30" as="alternateBounds" />
          </mxGeometry>
        </mxCell>
        <mxCell id="xt3l5cFGsbigXVoNxXbE-5" value="DocLicNum" style="shape=partialRectangle;connectable=0;fillColor=none;top=0;left=0;bottom=0;right=0;align=left;spacingLeft=6;fontStyle=5;overflow=hidden;whiteSpace=wrap;html=1;" vertex="1" parent="xt3l5cFGsbigXVoNxXbE-3">
          <mxGeometry x="40" width="140" height="30" as="geometry">
            <mxRectangle width="140" height="30" as="alternateBounds" />
          </mxGeometry>
        </mxCell>
        <mxCell id="xt3l5cFGsbigXVoNxXbE-6" value="" style="shape=tableRow;horizontal=0;startSize=0;swimlaneHead=0;swimlaneBody=0;fillColor=none;collapsible=0;dropTarget=0;points=[[0,0.5],[1,0.5]];portConstraint=eastwest;top=0;left=0;right=0;bottom=1;" vertex="1" parent="xt3l5cFGsbigXVoNxXbE-2">
          <mxGeometry y="60" width="180" height="35" as="geometry" />
        </mxCell>
        <mxCell id="xt3l5cFGsbigXVoNxXbE-7" value="PK,FK" style="shape=partialRectangle;connectable=0;fillColor=none;top=0;left=0;bottom=0;right=0;fontStyle=1;overflow=hidden;whiteSpace=wrap;html=1;" vertex="1" parent="xt3l5cFGsbigXVoNxXbE-6">
          <mxGeometry width="40" height="35" as="geometry">
            <mxRectangle width="40" height="35" as="alternateBounds" />
          </mxGeometry>
        </mxCell>
        <mxCell id="xt3l5cFGsbigXVoNxXbE-8" value="ClinicId" style="shape=partialRectangle;connectable=0;fillColor=none;top=0;left=0;bottom=0;right=0;align=left;spacingLeft=6;fontStyle=5;overflow=hidden;whiteSpace=wrap;html=1;" vertex="1" parent="xt3l5cFGsbigXVoNxXbE-6">
          <mxGeometry x="40" width="140" height="35" as="geometry">
            <mxRectangle width="140" height="35" as="alternateBounds" />
          </mxGeometry>
        </mxCell>
        <mxCell id="xt3l5cFGsbigXVoNxXbE-33" value="DoctorNurse" style="shape=table;startSize=30;container=1;collapsible=1;childLayout=tableLayout;fixedRows=1;rowLines=0;fontStyle=1;align=center;resizeLast=1;html=1;strokeColor=#080808;rounded=1;swimlaneLine=1;dashed=1;dashPattern=8 8;" vertex="1" parent="1">
          <mxGeometry x="1280" y="485" width="200" height="90" as="geometry" />
        </mxCell>
        <mxCell id="xt3l5cFGsbigXVoNxXbE-34" value="" style="shape=tableRow;horizontal=0;startSize=0;swimlaneHead=0;swimlaneBody=0;fillColor=none;collapsible=0;dropTarget=0;points=[[0,0.5],[1,0.5]];portConstraint=eastwest;top=0;left=0;right=0;bottom=1;" vertex="1" parent="xt3l5cFGsbigXVoNxXbE-33">
          <mxGeometry y="30" width="200" height="30" as="geometry" />
        </mxCell>
        <mxCell id="xt3l5cFGsbigXVoNxXbE-35" value="PK,FK" style="shape=partialRectangle;connectable=0;fillColor=none;top=0;left=0;bottom=0;right=0;fontStyle=1;overflow=hidden;whiteSpace=wrap;html=1;" vertex="1" parent="xt3l5cFGsbigXVoNxXbE-34">
          <mxGeometry width="40" height="30" as="geometry">
            <mxRectangle width="40" height="30" as="alternateBounds" />
          </mxGeometry>
        </mxCell>
        <mxCell id="xt3l5cFGsbigXVoNxXbE-36" value="DoctorId" style="shape=partialRectangle;connectable=0;fillColor=none;top=0;left=0;bottom=0;right=0;align=left;spacingLeft=6;fontStyle=5;overflow=hidden;whiteSpace=wrap;html=1;" vertex="1" parent="xt3l5cFGsbigXVoNxXbE-34">
          <mxGeometry x="40" width="160" height="30" as="geometry">
            <mxRectangle width="160" height="30" as="alternateBounds" />
          </mxGeometry>
        </mxCell>
        <mxCell id="xt3l5cFGsbigXVoNxXbE-37" value="" style="shape=tableRow;horizontal=0;startSize=0;swimlaneHead=0;swimlaneBody=0;fillColor=none;collapsible=0;dropTarget=0;points=[[0,0.5],[1,0.5]];portConstraint=eastwest;top=0;left=0;right=0;bottom=1;" vertex="1" parent="xt3l5cFGsbigXVoNxXbE-33">
          <mxGeometry y="60" width="200" height="30" as="geometry" />
        </mxCell>
        <mxCell id="xt3l5cFGsbigXVoNxXbE-38" value="PK,FK" style="shape=partialRectangle;connectable=0;fillColor=none;top=0;left=0;bottom=0;right=0;fontStyle=1;overflow=hidden;whiteSpace=wrap;html=1;" vertex="1" parent="xt3l5cFGsbigXVoNxXbE-37">
          <mxGeometry width="40" height="30" as="geometry">
            <mxRectangle width="40" height="30" as="alternateBounds" />
          </mxGeometry>
        </mxCell>
        <mxCell id="xt3l5cFGsbigXVoNxXbE-39" value="NurseId" style="shape=partialRectangle;connectable=0;fillColor=none;top=0;left=0;bottom=0;right=0;align=left;spacingLeft=6;fontStyle=5;overflow=hidden;whiteSpace=wrap;html=1;" vertex="1" parent="xt3l5cFGsbigXVoNxXbE-37">
          <mxGeometry x="40" width="160" height="30" as="geometry">
            <mxRectangle width="160" height="30" as="alternateBounds" />
          </mxGeometry>
        </mxCell>
        <mxCell id="xt3l5cFGsbigXVoNxXbE-64" style="edgeStyle=orthogonalEdgeStyle;rounded=0;orthogonalLoop=1;jettySize=auto;html=1;exitX=1;exitY=0.5;exitDx=0;exitDy=0;startArrow=ERoneToMany;startFill=0;endArrow=ERoneToMany;endFill=0;curved=1;strokeWidth=3;strokeColor=#CC0000;" edge="1" parent="1" source="xt3l5cFGsbigXVoNxXbE-3" target="-3ElCd8Z8MywudBfbo3r-66">
          <mxGeometry relative="1" as="geometry" />
        </mxCell>
        <mxCell id="xt3l5cFGsbigXVoNxXbE-65" style="edgeStyle=orthogonalEdgeStyle;rounded=0;orthogonalLoop=1;jettySize=auto;html=1;exitX=1;exitY=0.5;exitDx=0;exitDy=0;entryX=0;entryY=0.5;entryDx=0;entryDy=0;startArrow=ERoneToMany;startFill=0;endArrow=ERoneToMany;endFill=0;curved=1;strokeWidth=3;strokeColor=#CC0000;" edge="1" parent="1" source="xt3l5cFGsbigXVoNxXbE-37" target="-3ElCd8Z8MywudBfbo3r-88">
          <mxGeometry relative="1" as="geometry" />
        </mxCell>
        <mxCell id="xt3l5cFGsbigXVoNxXbE-66" value="JPA handles creating of join tables" style="text;html=1;align=center;verticalAlign=middle;whiteSpace=wrap;rounded=0;" vertex="1" parent="1">
          <mxGeometry x="680" y="430" width="60" height="30" as="geometry" />
        </mxCell>
        <mxCell id="xt3l5cFGsbigXVoNxXbE-67" value="JPA handles creating of join tables" style="text;html=1;align=center;verticalAlign=middle;whiteSpace=wrap;rounded=0;" vertex="1" parent="1">
          <mxGeometry x="1350" y="430" width="60" height="30" as="geometry" />
        </mxCell>
        <mxCell id="xt3l5cFGsbigXVoNxXbE-68" value="DoctorClinic" style="shape=table;startSize=30;container=1;collapsible=1;childLayout=tableLayout;fixedRows=1;rowLines=0;fontStyle=1;align=center;resizeLast=1;html=1;strokeColor=#080808;rounded=1;swimlaneLine=1;dashed=1;dashPattern=8 8;" vertex="1" parent="1">
          <mxGeometry x="910" y="740" width="180" height="95" as="geometry" />
        </mxCell>
        <mxCell id="xt3l5cFGsbigXVoNxXbE-69" value="" style="shape=tableRow;horizontal=0;startSize=0;swimlaneHead=0;swimlaneBody=0;fillColor=none;collapsible=0;dropTarget=0;points=[[0,0.5],[1,0.5]];portConstraint=eastwest;top=0;left=0;right=0;bottom=1;" vertex="1" parent="xt3l5cFGsbigXVoNxXbE-68">
          <mxGeometry y="30" width="180" height="30" as="geometry" />
        </mxCell>
        <mxCell id="xt3l5cFGsbigXVoNxXbE-70" value="PK,FK" style="shape=partialRectangle;connectable=0;fillColor=none;top=0;left=0;bottom=0;right=0;fontStyle=1;overflow=hidden;whiteSpace=wrap;html=1;" vertex="1" parent="xt3l5cFGsbigXVoNxXbE-69">
          <mxGeometry width="40" height="30" as="geometry">
            <mxRectangle width="40" height="30" as="alternateBounds" />
          </mxGeometry>
        </mxCell>
        <mxCell id="xt3l5cFGsbigXVoNxXbE-71" value="NurseId" style="shape=partialRectangle;connectable=0;fillColor=none;top=0;left=0;bottom=0;right=0;align=left;spacingLeft=6;fontStyle=5;overflow=hidden;whiteSpace=wrap;html=1;" vertex="1" parent="xt3l5cFGsbigXVoNxXbE-69">
          <mxGeometry x="40" width="140" height="30" as="geometry">
            <mxRectangle width="140" height="30" as="alternateBounds" />
          </mxGeometry>
        </mxCell>
        <mxCell id="xt3l5cFGsbigXVoNxXbE-72" value="" style="shape=tableRow;horizontal=0;startSize=0;swimlaneHead=0;swimlaneBody=0;fillColor=none;collapsible=0;dropTarget=0;points=[[0,0.5],[1,0.5]];portConstraint=eastwest;top=0;left=0;right=0;bottom=1;" vertex="1" parent="xt3l5cFGsbigXVoNxXbE-68">
          <mxGeometry y="60" width="180" height="35" as="geometry" />
        </mxCell>
        <mxCell id="xt3l5cFGsbigXVoNxXbE-73" value="PK,FK" style="shape=partialRectangle;connectable=0;fillColor=none;top=0;left=0;bottom=0;right=0;fontStyle=1;overflow=hidden;whiteSpace=wrap;html=1;" vertex="1" parent="xt3l5cFGsbigXVoNxXbE-72">
          <mxGeometry width="40" height="35" as="geometry">
            <mxRectangle width="40" height="35" as="alternateBounds" />
          </mxGeometry>
        </mxCell>
        <mxCell id="xt3l5cFGsbigXVoNxXbE-74" value="ClinicId" style="shape=partialRectangle;connectable=0;fillColor=none;top=0;left=0;bottom=0;right=0;align=left;spacingLeft=6;fontStyle=5;overflow=hidden;whiteSpace=wrap;html=1;" vertex="1" parent="xt3l5cFGsbigXVoNxXbE-72">
          <mxGeometry x="40" width="140" height="35" as="geometry">
            <mxRectangle width="140" height="35" as="alternateBounds" />
          </mxGeometry>
        </mxCell>
        <mxCell id="xt3l5cFGsbigXVoNxXbE-75" style="edgeStyle=orthogonalEdgeStyle;rounded=0;orthogonalLoop=1;jettySize=auto;html=1;exitX=1;exitY=0.5;exitDx=0;exitDy=0;entryX=0;entryY=0.5;entryDx=0;entryDy=0;startArrow=ERmandOne;startFill=0;endArrow=ERoneToMany;endFill=0;strokeWidth=2;fillColor=#a20025;strokeColor=#CC6669;" edge="1" parent="1">
          <mxGeometry relative="1" as="geometry">
            <mxPoint x="510" y="435" as="sourcePoint" />
            <mxPoint x="910" y="817.5" as="targetPoint" />
            <Array as="points">
              <mxPoint x="570" y="435" />
              <mxPoint x="570" y="817" />
            </Array>
          </mxGeometry>
        </mxCell>
        <mxCell id="xt3l5cFGsbigXVoNxXbE-78" style="edgeStyle=orthogonalEdgeStyle;rounded=0;orthogonalLoop=1;jettySize=auto;html=1;exitX=0;exitY=0.5;exitDx=0;exitDy=0;entryX=1;entryY=0.5;entryDx=0;entryDy=0;startArrow=ERoneToMany;startFill=0;endArrow=ERmandOne;endFill=0;strokeWidth=2;strokeColor=#CC6669;" edge="1" parent="1" source="-3ElCd8Z8MywudBfbo3r-88" target="xt3l5cFGsbigXVoNxXbE-69">
          <mxGeometry relative="1" as="geometry">
            <Array as="points">
              <mxPoint x="1530" y="425" />
              <mxPoint x="1530" y="785" />
            </Array>
          </mxGeometry>
        </mxCell>
      </root>
    </mxGraphModel>
  </diagram>
</mxfile>
